<svg viewBox="0 0 50 52" fill="none" xmlns="http://www.w3.org/2000/svg">
  <ellipse cx="25" cy="26" rx="23" ry="24" fill="#1e293b" />
  <ellipse cx="25" cy="26" rx="23" ry="24" stroke="#475569" stroke-width="1.5" fill="none" />
  <ellipse cx="25" cy="26" rx="21" ry="22" stroke="#334155" stroke-width="0.5" fill="none" />
  <clipPath id="badge-clip">
    <ellipse cx="25" cy="26" rx="20.5" ry="21.5" />
  </clipPath>
  <g clip-path="url(#badge-clip)">
    <circle cx="36" cy="9" r="5" fill="#fbbf24" opacity="0.3" />
    <circle cx="36" cy="9" r="3" fill="#fbbf24" />
    <path d="M23 6 L23 25 L14 25 Z" fill="#fef3c7" />
    <path d="M23 6 L23 25 L14 25 Z" stroke="#fcd34d" stroke-width="0.4" fill="none" />
    <path d="M23 13 L17.5 25" stroke="#fcd34d" stroke-width="0.3" opacity="0.5" />
    <path d="M24 9 L24 25 L33 25 Z" fill="#fefce8" />
    <path d="M24 9 L24 25 L33 25 Z" stroke="#fcd34d" stroke-width="0.4" fill="none" />
    <line x1="23.5" y1="5" x2="23.5" y2="25" stroke="#92400e" stroke-width="0.8" />
    <line x1="23" y1="25" x2="14" y2="25" stroke="#92400e" stroke-width="0.5" />
    <path d="M23.5 6 L14 25" stroke="#b45309" stroke-width="0.3" opacity="0.4" />
    <path d="M23.5 9 L33 25" stroke="#b45309" stroke-width="0.3" opacity="0.4" />
    <path d="M19 23.5 L29 23.5 L28.5 25 L19 25 Z" fill="#92400e" />
    <rect x="20" y="23.5" width="1.5" height="1.5" fill="#fcd34d" opacity="0.35" />
    <rect x="23" y="23.5" width="1.5" height="1.5" fill="#fcd34d" opacity="0.35" />
    <path d="M11 25 L39 25 L37.5 29 Q36.5 30 35 30 L15 30 Q13.5 30 12.5 29 Z" fill="#ea580c" />
    <path d="M12 25 L38 25 L37 28.5 Q36 29.5 35 29.5 L15 29.5 Q14 29.5 13 28.5 Z" fill="#f97316" />
    <path d="M14 27.5 L36 27.5" stroke="#c2410c" stroke-width="0.3" opacity="0.4" />
    <circle cx="18" cy="27.5" r="0.8" fill="#fcd34d" opacity="0.3" />
    <circle cx="23" cy="27.5" r="0.8" fill="#fcd34d" opacity="0.3" />
    <circle cx="28" cy="27.5" r="0.8" fill="#fcd34d" opacity="0.3" />
    <!-- Water surface (mid-hull) -->
    <path d="M4 28 Q10 26.5 16 28 Q22 29.5 28 28 Q34 26.5 40 28 Q46 29.5 50 28" stroke="#22d3ee" stroke-width="0.8" fill="none" opacity="0.7" />
    <path d="M4 29.5 Q10 28.5 16 29.5 Q22 30.5 28 29.5 Q34 28.5 40 29.5" stroke="#06b6d4" stroke-width="0.5" fill="none" opacity="0.35" />
    <rect x="4" y="28" width="42" height="21" fill="#164e63" opacity="0.12" />
    <!-- Centerboard -->
    <path d="M22 30 L28 30 L27 36 Q25 38 23 36 Z" fill="#7c2d12" opacity="0.5" />
    <path d="M22 30 L28 30 L27 36 Q25 38 23 36 Z" stroke="#431407" stroke-width="0.3" opacity="0.3" fill="none" />
    <!-- Rudder -->
    <path d="M33 30 L34.5 30 L34.5 35 Q34.5 36 33.5 36 L32.5 36 Z" fill="#78350f" opacity="0.45" />
    <!-- Underwater ripples -->
    <path d="M6 32 Q12 31 18 32 Q24 33 30 32 Q36 31 42 32" stroke="#22d3ee" stroke-width="0.4" fill="none" opacity="0.15" />
    <path d="M8 35 Q14 34 20 35 Q26 36 32 35 Q38 34 44 35" stroke="#22d3ee" stroke-width="0.3" fill="none" opacity="0.1" />
  </g>
</svg>
